<svg width="16" height="16" viewBox="0 0 16 16" fill="none" xmlns="http://www.w3.org/2000/svg">
<path fill-rule="evenodd" clip-rule="evenodd" d="M8.0416 8.87437e-07H7.9584C7.2396 -2.22451e-05 6.64024 -3.76403e-05 6.16442 0.0616183C5.66218 0.126705 5.20874 0.269873 4.84437 0.621078C4.47999 0.972284 4.33146 1.40933 4.26393 1.89341C4.21807 2.22218 4.2051 3.00836 4.20143 3.68244C2.58363 3.73337 1.61229 3.9154 0.937256 4.56603C5.96046e-08 5.46942 0 6.92341 0 9.83132C0 12.7392 5.96046e-08 14.1933 0.937256 15.0966C1.87451 16 3.38301 16 6.39998 16H9.6C12.617 16 14.1255 16 15.0627 15.0966C16 14.1933 16 12.7392 16 9.83132C16 6.92341 16 5.46942 15.0627 4.56603C14.3877 3.9154 13.4164 3.73337 11.7986 3.68244C11.7949 3.00836 11.7819 2.22218 11.7361 1.89341C11.6686 1.40933 11.52 0.972284 11.1556 0.621078C10.7913 0.269873 10.3378 0.126705 9.8356 0.0616183C9.35976 -3.76403e-05 8.7604 -2.22451e-05 8.0416 8.87437e-07ZM10.5983 3.6641C10.5947 3.01126 10.5832 2.30868 10.5468 2.04754C10.4971 1.69171 10.4114 1.53942 10.3071 1.43894C10.2029 1.33845 10.0449 1.25577 9.67568 1.20794C9.28928 1.15786 8.7712 1.15663 8 1.15663C7.2288 1.15663 6.71072 1.15786 6.32431 1.20794C5.95514 1.25577 5.79715 1.33845 5.6929 1.43894C5.58864 1.53942 5.50286 1.69171 5.45323 2.04754C5.4168 2.30868 5.40529 3.01126 5.40166 3.6641C5.7148 3.66265 6.04708 3.66265 6.4 3.66265H9.6C9.95296 3.66265 10.2852 3.66265 10.5983 3.6641ZM8 6.16867C8.33136 6.16867 8.6 6.4276 8.6 6.74699V6.75485C9.47104 6.96636 10.2 7.62834 10.2 8.54616C10.2 8.86554 9.93136 9.12447 9.6 9.12447C9.26864 9.12447 9 8.86554 9 8.54616C9 8.25006 8.65936 7.83938 8 7.83938C7.34064 7.83938 7 8.25006 7 8.54616C7 8.84233 7.34064 9.25301 8 9.25301C9.10792 9.25301 10.2 9.9931 10.2 11.1165C10.2 12.0343 9.47104 12.6963 8.6 12.9078V12.9157C8.6 13.235 8.33136 13.494 8 13.494C7.66864 13.494 7.4 13.235 7.4 12.9157V12.9078C6.52896 12.6963 5.8 12.0343 5.8 11.1165C5.8 10.7971 6.06863 10.5382 6.4 10.5382C6.73136 10.5382 7 10.7971 7 11.1165C7 11.4126 7.34064 11.8233 8 11.8233C8.65936 11.8233 9 11.4126 9 11.1165C9 10.8203 8.65936 10.4096 8 10.4096C6.89208 10.4096 5.8 9.66963 5.8 8.54616C5.8 7.62834 6.52896 6.96636 7.4 6.75485V6.74699C7.4 6.4276 7.66864 6.16867 8 6.16867Z" fill="white" fill-opacity="0.85"/>
</svg>
