<svg width="16" height="17" viewBox="0 0 16 17" fill="none" xmlns="http://www.w3.org/2000/svg">
<g clip-path="url(#clip0_77_359)">
<path d="M8 0.5C3.58171 0.5 0 4.08171 0 8.5C0 12.9183 3.58171 16.5 8 16.5C12.4183 16.5 16 12.9183 16 8.5C16 4.08171 12.4183 0.5 8 0.5ZM1.02534 9.00002H2.741C2.77917 9.83015 2.90462 10.5897 3.09946 11.2718H1.57492C1.26965 10.5669 1.08238 9.80149 1.02534 9.00002ZM10.4679 8.00002C10.4303 7.19633 10.335 6.43505 10.206 5.72828H11.845C12.0631 6.3991 12.2129 7.15554 12.258 8.00002H10.4679ZM6.73894 11.2718C6.59781 10.4926 6.52855 9.73197 6.51572 9.00002H9.48431C9.47151 9.73197 9.40222 10.4926 9.26106 11.2718H6.73894ZM9.0432 12.2718C8.80875 13.1718 8.46939 14.0892 7.9999 15.0087C7.53048 14.0892 7.19118 13.1718 6.95677 12.2718H9.0432ZM6.52934 8.00002C6.56895 7.19172 6.67115 6.43006 6.80686 5.72828H9.19314C9.32888 6.43006 9.43105 7.19172 9.47069 8.00002H6.52934ZM7.03158 4.72831C7.34406 3.50842 7.73015 2.54594 7.99993 1.95335C8.26975 2.54594 8.65587 3.50842 8.96842 4.72831H7.03158ZM9.99412 4.72831C9.6751 3.40629 9.26547 2.34431 8.9614 1.65794C9.3393 1.92684 10.5948 2.92073 11.4512 4.72831H9.99412ZM7.03847 1.65788C6.7344 2.34424 6.32483 3.40625 6.00584 4.72831H4.5486C5.40513 2.92057 6.6607 1.92668 7.03847 1.65788ZM5.79396 5.72831C5.66498 6.43509 5.56973 7.19636 5.53211 8.00005H3.74181C3.78697 7.15561 3.93669 6.39913 4.15487 5.72831H5.79396ZM2.74207 8.00002H1.02534C1.08238 7.19855 1.26962 6.43319 1.57489 5.72828H3.10638C2.91011 6.41027 2.78217 7.16926 2.74207 8.00002ZM3.74129 9.00002H5.5184C5.52976 9.73321 5.59144 10.4928 5.72219 11.2718H4.1554C3.93538 10.5992 3.78514 9.84253 3.74129 9.00002ZM5.92927 12.2718C6.17456 13.29 6.53891 14.3307 7.06377 15.3755C6.70958 15.1219 5.42204 14.1092 4.54906 12.2718H5.92927ZM8.93502 15.3778C9.46054 14.3322 9.82521 13.2907 10.0707 12.2718H11.4609C10.5906 14.1185 9.2975 15.1229 8.93502 15.3778ZM10.2778 11.2718C10.4086 10.4928 10.4703 9.73321 10.4816 9.00002H12.2591C12.2161 9.84406 12.0682 10.6005 11.8515 11.2718H10.2778ZM13.2588 9.00002H14.9747C14.9176 9.80149 14.7304 10.5669 14.4251 11.2718H12.9004C13.0952 10.5897 13.2206 9.83015 13.2588 9.00002ZM13.2578 8.00002C13.2177 7.16922 13.0897 6.41027 12.8935 5.72828H14.4251C14.7304 6.43316 14.9176 7.19851 14.9747 8.00002H13.2578ZM13.8876 4.72831H12.541C12.094 3.65161 11.5112 2.79989 10.9629 2.16713C12.1624 2.73073 13.1761 3.6215 13.8876 4.72831ZM5.0368 2.16727C4.48849 2.80002 3.90583 3.65171 3.45887 4.72831H2.11236C2.82384 3.62157 3.83739 2.73089 5.0368 2.16727ZM2.11239 12.2718H3.45074C3.89097 13.3375 4.46547 14.1863 5.00999 14.8198C3.82233 14.2555 2.81855 13.3701 2.11239 12.2718ZM10.9902 14.8197C11.5346 14.1863 12.109 13.3374 12.5492 12.2718H13.8876C13.1815 13.3701 12.1778 14.2554 10.9902 14.8197Z" fill="white"/>
</g>
<defs>
<clipPath id="clip0_77_359">
<rect width="16" height="16" fill="white" transform="translate(0 0.5)"/>
</clipPath>
</defs>
</svg>
