<svg width="23" height="22" viewBox="0 0 23 22" fill="none" xmlns="http://www.w3.org/2000/svg">
<g clipPath="url(#clip0_77_381)">
<path d="M6.01681 10.188L15.655 0.851232C16.0314 0.486591 16.6416 0.486591 17.018 0.851294C17.3944 1.21594 17.3944 1.80709 17.018 2.17173L8.06133 10.8483L17.018 19.5253C17.3944 19.8899 17.3944 20.4811 17.018 20.8457C16.8298 21.0281 16.5832 21.1192 16.3365 21.1192C16.0898 21.1192 15.8431 21.0281 15.6549 20.8457L6.01681 11.5084C5.836 11.3333 5.73447 11.0959 5.73447 10.8482C5.73447 10.6006 5.836 10.3631 6.01681 10.188Z" fill="white"/>
</g>
<defs>
<clipPath id="clip0_77_381">
<rect width="21.204" height="20.5414" fill="white" transform="matrix(-1 0 0 1 22.1194 0.577759)"/>
</clipPath>
</defs>
</svg>
