<svg width="170" height="17" viewBox="0 0 170 17" fill="none" xmlns="http://www.w3.org/2000/svg">
<g filter="url(#filter0_i_77_349)">
<path d="M7.69174 8.20161H15.5042C15.8827 8.20161 16.2212 8.06763 16.5076 7.79967C16.807 7.51953 16.9632 7.19067 16.9884 6.81309C17.0144 6.42333 16.902 6.09447 16.6391 5.82651C16.3893 5.54637 16.0686 5.41239 15.6902 5.41239H7.87768L7.69174 8.20161ZM1.80031 0.625653H17.6084C20.9922 0.589113 23.6717 3.42705 23.3971 6.81309C23.221 10.1869 20.1615 13.0492 16.7834 13.0005H7.37181L7.10547 16.9956H0.708987L1.80031 0.625653ZM25.556 0.613473H41.3641C44.7479 0.576933 47.4274 3.41487 47.1528 6.80091C47.0708 8.03109 46.6665 9.15165 45.9407 10.1504C45.228 11.137 44.3109 11.8921 43.2034 12.3915L46.474 16.9834H39.6624L36.8404 12.9883H31.1275L30.8612 16.9834H24.4647L25.556 0.613473ZM39.4337 5.40021H31.6334L31.4474 8.18943H39.2477C39.6383 8.18943 39.9769 8.05545 40.2633 7.78749C40.5627 7.50735 40.7189 7.17849 40.7441 6.80091C40.7961 6.02139 40.2149 5.40021 39.4337 5.40021ZM49.5558 0.601293H55.9523L54.861 16.9712H48.4645L49.5558 0.601293ZM58.2546 16.9712L59.3459 0.601293H67.3537L73.2045 8.78625L80.1589 0.601293H88.1545L87.0632 16.9712H80.6667L81.2489 8.23815L74.258 16.9712H71.0597L65.2332 8.23815L64.651 16.9712H58.2546ZM90.7969 16.9956L91.8882 0.625653H111.09L110.811 4.81557H98.0054L97.8657 6.91053H110.671L110.418 10.6985H97.6132L97.4735 12.7935H110.279L109.999 16.9956H90.7969Z" fill="white"/>
<path d="M123.798 0.613473H139.606C142.99 0.576933 145.67 3.41487 145.395 6.80091C145.313 8.03109 144.909 9.15165 144.183 10.1504C143.47 11.137 142.553 11.8921 141.446 12.3915L144.716 16.9834H137.905L135.083 12.9883H129.37L129.103 16.9834H122.707L123.798 0.613473ZM137.676 5.40021H129.876L129.69 8.18943H137.49C137.881 8.18943 138.219 8.05545 138.505 7.78749C138.805 7.50735 138.961 7.17849 138.986 6.80091C139.038 6.02139 138.457 5.40021 137.676 5.40021ZM153.688 8.20161H161.5C161.879 8.20161 162.217 8.06763 162.504 7.79967C162.803 7.51953 162.959 7.19067 162.984 6.81309C163.01 6.42333 162.898 6.09447 162.635 5.82651C162.385 5.54637 162.065 5.41239 161.686 5.41239H153.874L153.688 8.20161ZM147.796 0.625653H163.605C166.988 0.589113 169.668 3.42705 169.393 6.81309C169.217 10.1869 166.158 13.0492 162.78 13.0005H153.368L153.102 16.9956H146.705L147.796 0.625653Z" fill="#FF3E68"/>
</g>
<defs>
<filter id="filter0_i_77_349" x="0.708984" y="0.576935" width="169.149" height="19.4186" filterUnits="userSpaceOnUse" color-interpolation-filters="sRGB">
<feFlood flood-opacity="0" result="BackgroundImageFix"/>
<feBlend mode="normal" in="SourceGraphic" in2="BackgroundImageFix" result="shape"/>
<feColorMatrix in="SourceAlpha" type="matrix" values="0 0 0 0 0 0 0 0 0 0 0 0 0 0 0 0 0 0 127 0" result="hardAlpha"/>
<feOffset dy="3"/>
<feGaussianBlur stdDeviation="2.5"/>
<feComposite in2="hardAlpha" operator="arithmetic" k2="-1" k3="1"/>
<feColorMatrix type="matrix" values="0 0 0 0 1 0 0 0 0 1 0 0 0 0 1 0 0 0 0.45 0"/>
<feBlend mode="normal" in2="shape" result="effect1_innerShadow_77_349"/>
</filter>
</defs>
</svg>
