<svg width="71" height="52" viewBox="0 0 71 52" fill="none" xmlns="http://www.w3.org/2000/svg">
<path d="M56.2542 0.879395H14.7458C6.60191 0.879395 0 7.4813 0 15.6252V36.375C0 44.5189 6.60191 51.1208 14.7458 51.1208H56.2542C64.3981 51.1208 71 44.5189 71 36.375V15.6252C71 7.4813 64.3981 0.879395 56.2542 0.879395ZM46.2817 27.0096L26.8669 36.2693C26.3496 36.5161 25.752 36.1389 25.752 35.5658V16.4676C25.752 15.8864 26.3653 15.5097 26.8837 15.7724L46.2985 25.6109C46.8758 25.9034 46.8658 26.7312 46.2817 27.0096Z" fill="url(#paint0_linear_77_474)"/>
<defs>
<linearGradient id="paint0_linear_77_474" x1="35.5" y1="0.879395" x2="35.5" y2="51.1208" gradientUnits="userSpaceOnUse">
<stop offset="0.44" stop-color="white"/>
<stop offset="1" stop-color="#FFDBDB"/>
</linearGradient>
</defs>
</svg>
