<svg width="63" height="48" viewBox="0 0 63 48" fill="none" xmlns="http://www.w3.org/2000/svg">
<path d="M53.0226 4.01999C49.0087 2.142 44.7169 0.777156 40.2299 0C39.6788 0.996286 39.035 2.33631 38.5912 3.4023C33.8214 2.68498 29.0955 2.68498 24.4134 3.4023C23.9696 2.33631 23.3112 0.996286 22.7552 0C18.2634 0.777156 13.9667 2.14702 9.95278 4.02994C1.85676 16.2641 -0.33794 28.1944 0.759411 39.9552C6.12912 43.9652 11.333 46.4011 16.4491 47.9951C17.7123 46.2566 18.8389 44.4086 19.8094 42.4609C17.961 41.7585 16.1906 40.8918 14.5178 39.8855C14.9616 39.5567 15.3957 39.213 15.8151 38.8593C26.018 43.6315 37.1037 43.6315 47.1847 38.8593C47.609 39.213 48.043 39.5567 48.482 39.8855C46.8042 40.8967 45.029 41.7634 43.1806 42.4659C44.1511 44.4086 45.2729 46.2616 46.5409 48.0001C51.6619 46.4061 56.8706 43.9702 62.2403 39.9552C63.5279 26.3214 60.0408 14.5007 53.0226 4.01999ZM21.1994 32.7224C18.1366 32.7224 15.6248 29.8631 15.6248 26.3811C15.6248 22.8992 18.083 20.0349 21.1994 20.0349C24.3159 20.0349 26.8276 22.8942 26.774 26.3811C26.7788 29.8631 24.3159 32.7224 21.1994 32.7224ZM41.8004 32.7224C38.7375 32.7224 36.2258 29.8631 36.2258 26.3811C36.2258 22.8992 38.6838 20.0349 41.8004 20.0349C44.9168 20.0349 47.4286 22.8942 47.3749 26.3811C47.3749 29.8631 44.9168 32.7224 41.8004 32.7224Z" fill="url(#paint0_linear_77_470)"/>
<defs>
<linearGradient id="paint0_linear_77_470" x1="31.5" y1="0" x2="31.5" y2="48.0001" gradientUnits="userSpaceOnUse">
<stop stop-color="white"/>
<stop offset="1" stop-color="#E7E9FF"/>
</linearGradient>
</defs>
</svg>
