<svg width="70" height="58" viewBox="0 0 70 58" fill="none" xmlns="http://www.w3.org/2000/svg">
<path d="M63.8664 0.512042C63.8664 0.512042 70.3049 -1.99854 69.7683 4.09859C69.5895 6.6092 67.9799 15.3962 66.7279 24.9006L62.4356 53.0551C62.4356 53.0551 62.078 57.1795 58.8586 57.8969C55.6393 58.6141 50.8105 55.3863 49.9162 54.6689C49.2008 54.131 36.5027 46.0612 32.0314 42.1161C30.7794 41.0401 29.3487 38.8881 32.2102 36.3775L50.9894 18.4449C53.1355 16.2929 55.2817 11.2717 46.3392 17.3689L21.3006 34.405C21.3006 34.405 18.439 36.1982 13.0737 34.5843L1.44848 30.9978C1.44848 30.9978 -2.84388 28.3079 4.4889 25.6178C22.3737 17.1894 44.372 8.5817 63.8664 0.512042Z" fill="url(#paint0_linear_77_478)"/>
<defs>
<linearGradient id="paint0_linear_77_478" x1="35" y1="0" x2="35" y2="58.0002" gradientUnits="userSpaceOnUse">
<stop stop-color="white"/>
<stop offset="1" stop-color="#D1EFFF"/>
</linearGradient>
</defs>
</svg>
