<svg width="70" height="31" viewBox="0 0 70 31" fill="none" xmlns="http://www.w3.org/2000/svg">
<path d="M66.8743 0H2.80221C1.25459 0 0 1.25459 0 2.8022V28.0978C0 29.6454 1.25459 30.9 2.80221 30.9H66.8743C68.4219 30.9 69.6765 29.6454 69.6765 28.0978V2.80221C69.6765 1.25459 68.4219 0 66.8743 0Z" fill="#1B1B1B"/>
<path d="M27.3192 23.119L29.9106 7.91291H34.0554L31.4622 23.119H27.3192ZM46.4363 8.24071C45.6153 7.93265 44.3284 7.60205 42.7216 7.60205C38.6261 7.60205 35.7412 9.66438 35.7167 12.6202C35.6935 14.8053 37.7762 16.0242 39.3483 16.7516C40.9617 17.4969 41.504 17.9722 41.4964 18.6378C41.4862 19.657 40.208 20.1227 39.0167 20.1227C37.3578 20.1227 36.4765 19.8922 35.1152 19.3245L34.5811 19.0829L33.9994 22.4869C34.9675 22.9114 36.7577 23.2791 38.6164 23.2981C42.9733 23.2981 45.8015 21.2594 45.8339 18.1029C45.8493 16.3731 44.7451 15.0567 42.3538 13.9714C40.9052 13.2681 40.0179 12.7986 40.0273 12.0864C40.0273 11.4543 40.7783 10.7783 42.4009 10.7783C43.7563 10.7574 44.7382 11.0529 45.5032 11.3609L45.8746 11.5365L46.4363 8.24071ZM57.1022 7.91268H53.8994C52.9072 7.91268 52.1647 8.18354 51.729 9.17369L45.5736 23.109H49.9259C49.9259 23.109 50.6374 21.2352 50.7984 20.8239C51.2741 20.8239 55.5021 20.8304 56.1067 20.8304C56.2306 21.3627 56.6108 23.109 56.6108 23.109H60.4569L57.1022 7.91222V7.91268ZM52.0207 17.7319C52.3634 16.8557 53.6721 13.4811 53.6721 13.4811C53.6476 13.5217 54.0122 12.6007 54.2216 12.0298L54.5016 13.3409C54.5016 13.3409 55.2954 16.9707 55.4612 17.7319H52.0207ZM23.8005 7.91268L19.7427 18.2826L19.3103 16.1752C18.5548 13.746 16.2012 11.1141 13.5701 9.79651L17.2804 23.0949L21.6657 23.0899L28.1909 7.91253H23.8005" fill="white" fill-opacity="0.15"/>
<path d="M15.9565 7.91218H9.27311L9.22021 8.22856C14.4198 9.48724 17.8603 12.529 19.2887 16.1835L17.8354 9.19564C17.5845 8.23283 16.8569 7.9455 15.9567 7.91187" fill="white" fill-opacity="0.25"/>
</svg>
