<svg width="70" height="31" viewBox="0 0 70 31" fill="none" xmlns="http://www.w3.org/2000/svg">
<path d="M66.8743 0.100098H2.80221C1.25459 0.100098 0 1.35469 0 2.9023V28.1979C0 29.7455 1.25459 31.0001 2.80221 31.0001H66.8743C68.4219 31.0001 69.6765 29.7455 69.6765 28.1979V2.9023C69.6765 1.35469 68.4219 0.100098 66.8743 0.100098Z" fill="#1B1B1B"/>
<path d="M11.7715 8.19506H16.3959C16.8163 8.19506 18.0775 8.05493 18.6381 10.0168C19.0585 11.278 19.619 13.2399 20.4598 16.1827H20.7401C21.5809 13.0998 22.2816 10.9978 22.5618 10.0168C23.1224 8.05493 24.5237 8.19506 25.0843 8.19506H29.4284V21.648H24.9441V13.6603H24.6639L22.2816 21.648H18.9183L16.5361 13.6603H16.1157V21.648H11.7715M31.2502 8.19506H35.7345V16.1827H36.1549L39.0977 9.59641C39.6583 8.3352 40.9195 8.19506 40.9195 8.19506H45.1235V21.648H40.6392V13.6603H40.3589L37.4161 20.2466C36.8556 21.5078 35.4542 21.648 35.4542 21.648H31.2502M51.1493 17.5841V21.648H46.9452V14.6412H60.6784C60.1179 16.3229 58.156 17.5841 55.9139 17.5841" fill="white" fill-opacity="0.15"/>
<path d="M60.9585 13.8002C61.5191 11.2778 59.8374 8.19482 56.1939 8.19482H46.6648C46.9451 11.1376 49.4675 13.8002 52.13 13.8002" fill="white" fill-opacity="0.25"/>
</svg>
